<?xml version="1.0" encoding="utf-8"?>
<!-- Generator: Adobe Illustrator 15.1.0, SVG Export Plug-In . SVG Version: 6.00 Build 0)  -->
<!DOCTYPE svg PUBLIC "-//W3C//DTD SVG 1.1//EN" "http://www.w3.org/Graphics/SVG/1.1/DTD/svg11.dtd">
<svg version="1.1" id="Layer_1" xmlns="http://www.w3.org/2000/svg" xmlns:xlink="http://www.w3.org/1999/xlink" x="0px" y="0px"
	 width="114px" height="114px" viewBox="0 0 114 114" enable-background="new 0 0 114 114" xml:space="preserve">
<circle fill="#F1E7E3" stroke="#E84611" stroke-width="3" stroke-miterlimit="10" cx="57" cy="57" r="55.168"/>
<path id="path3066" fill="#E84611" d="M26.218,82.98c-0.102-0.129-2.192-4.645-4.645-10.035c-2.452-5.391-4.658-10.223-4.9-10.736
	l-0.44-0.936l-1.475,1.105c-1.548,1.158-1.918,1.316-2.133,0.916c-0.168-0.316-0.113-0.533,0.213-0.844
	c0.372-0.352,5.044-3.9,5.354-4.066c0.117-0.062,0.352-0.102,0.52-0.086c0.241,0.025,0.35,0.109,0.515,0.406
	c0.116,0.205,2.128,4.613,4.471,9.795c2.344,5.182,4.288,9.422,4.321,9.422s4.73-9.695,10.436-21.542
	c7.438-15.44,10.471-21.643,10.708-21.901l0.332-0.361h13.139h37.257v1.059v1.06H63.117H50.46l-0.135,0.216
	c-0.075,0.119-5.132,10.57-11.24,23.225c-6.647,13.775-11.208,23.115-11.363,23.275c-0.221,0.225-0.338,0.264-0.79,0.264
	C26.485,83.217,26.373,83.18,26.218,82.98L26.218,82.98z"/>
<path id="path3226" fill="#E84611" d="M72.013,80.18c-0.55-0.162-2.128-0.307-3.504-0.328c-2.461-0.035-3.28-0.49-1.701-0.945
	c1.312-0.377,1.741-1.631,1.772-5.146c0.033-3.838-0.169-4.154-4.3-6.713l-2.326-1.441l-1.28,0.701
	c-0.998,0.549-1.765,0.664-3.507,0.525c-2.063-0.166-2.279-0.111-2.913,0.768c-0.857,1.188-1.741,1.197-3.47,0.039
	c-0.747-0.5-1.767-0.908-2.267-0.908c-1.25,0-1.87-1.207-1.562-3.039c0.139-0.828,0.38-2.682,0.538-4.123
	c0.157-1.439,0.5-2.81,0.762-3.047c0.262-0.237,1.253-0.425,2.203-0.418c2.551,0.02,3.582-0.708,3.47-2.446
	c-0.052-0.774,0.115-1.633,0.368-1.91c0.255-0.279,0.43-1.495,0.392-2.733c-0.08-2.619,0.551-3.496,2.994-4.16
	c1.213-0.33,1.694-0.712,2.154-1.711c0.326-0.707,0.812-1.412,1.076-1.565c0.823-0.475,6.792,0.119,8.697,0.863
	c1.486,0.581,2.085,0.641,3.406,0.334c5.395-1.247,6.314-1.209,8.811,0.355c0.883,0.551,2.19,1.112,2.909,1.245
	c0.717,0.133,1.49,0.555,1.717,0.939c0.226,0.384,1.072,0.95,1.885,1.257c1.963,0.745,2.902,1.563,2.902,2.53
	c0,0.946,0.801,1.64,3.104,2.69c1.596,0.729,2.317,1.846,1.202,1.859c-0.275,0.002-0.756,0.151-1.067,0.33
	c-0.462,0.266-0.371,0.536,0.501,1.477c1.267,1.367,1.372,2.677,0.269,3.378c-1.056,0.672-3.19,3.553-3.199,4.32
	c-0.015,1.168-0.502,1.756-1.453,1.756c-0.526,0-0.958,0.152-0.958,0.338s-0.28,0.592-0.622,0.904
	c-0.7,0.633-4.29,0.725-5.524,0.137c-1.393-0.662-5.22,0.998-7.479,3.242l-1.996,1.98l0.007,2.789
	c0.003,1.762,0.218,3.121,0.585,3.695c1.076,1.691,1.129,1.889,0.568,2.211C74.514,80.592,73.392,80.578,72.013,80.18L72.013,80.18z
	 M76.566,66.746c0.353-0.805,0.755-2.1,0.894-2.885c0.209-1.184,0.119-1.488-0.54-1.807c-0.933-0.455-1.525-0.104-2.889,1.701
	c-0.738,0.979-0.859,1.49-0.645,2.709C73.893,69.342,75.364,69.471,76.566,66.746L76.566,66.746z M68.337,64.146
	c-0.168-2.701-0.766-3.596-2.409-3.596c-0.856,0-0.939,1.016-0.288,3.564c0.667,2.609,0.671,2.615,1.799,2.615h1.061L68.337,64.146z
	 M80.979,65.955c1.321-0.545,2.07-2.168,1.471-3.186c-0.59-1-2.313-1.387-3.08-0.689c-0.682,0.617-1.801,3.756-1.452,4.07
	C78.303,66.502,79.911,66.398,80.979,65.955L80.979,65.955z M65.197,64.596c-0.003-0.127-0.187-0.473-0.406-0.773
	c-0.35-0.473-0.481-0.451-0.99,0.15c-0.748,0.893-0.04,1.938,0.854,1.264c0.302-0.227,0.545-0.516,0.542-0.643V64.596z
	 M73.924,62.438c0.088-0.238-0.126-0.434-0.475-0.434c-0.351,0-0.635,0.26-0.635,0.576C72.814,63.223,73.676,63.111,73.924,62.438z"
	/>
<g id="layer2" transform="translate(0,-452.35902)">
</g>
</svg>
