<?xml version="1.0" encoding="utf-8"?>
<!-- Generator: Adobe Illustrator 15.1.0, SVG Export Plug-In . SVG Version: 6.00 Build 0)  -->
<!DOCTYPE svg PUBLIC "-//W3C//DTD SVG 1.1//EN" "http://www.w3.org/Graphics/SVG/1.1/DTD/svg11.dtd">
<svg version="1.1" id="Layer_2" xmlns="http://www.w3.org/2000/svg" xmlns:xlink="http://www.w3.org/1999/xlink" x="0px" y="0px"
	 width="114px" height="114px" viewBox="0 0 114 114" enable-background="new 0 0 114 114" xml:space="preserve">
<g>
	<path fill="#F14400" d="M72.365,66c-2.641,0-4.801,2.4-4.801,6.673c0,3.504,1.729,6.24,4.801,6.24c1.872,0,3.138-1.248,3.617-2.977
		C76.175,75.408,76,74.641,76,74.017v-3.456c0-0.48,0.175-0.96,0.079-1.345C75.551,67.296,74.381,66,72.365,66z"/>
	<path fill="#F14400" d="M99.012,97.259L86.589,43.741C85.346,38.383,79.828,34,74.328,34H40.672c-5.5,0-11.018,4.383-12.261,9.741
		L15.989,97.259c-1.244,5.357,2.239,9.741,7.739,9.741h67.545C96.772,107,100.255,102.616,99.012,97.259z M51.001,84l-5.896-9.408
		L43,77.137V84h-7V50h7v21h0.56c0.528-1,1.104-1.976,1.68-2.888L49.993,61h8.785l-8.4,9.268L59.978,84H51.001z M84,67.968v13.105
		c0,4.513-1.041,8.209-3.682,10.561c-2.592,2.208-6.161,2.881-9.617,2.881c-3.072,0-6.368-0.624-8.48-1.824l1.424-5.521
		c1.488,0.864,4.302,1.776,7.038,1.776c3.456,0,6.317-1.873,6.317-6.193V81h-0.555c-1.392,2-3.648,3.181-6.337,3.181
		c-5.808,0-9.937-4.649-9.937-11.419c0-7.535,4.896-12.205,10.657-12.205c3.216,0,5.232,1.443,6.433,3.443h0.096l0.24-3h6.337
		C83.838,62,84,64.464,84,67.968z"/>
</g>
<path fill="#F14400" d="M57.5,4.659c-7.443,0-13.479,6.036-13.479,13.479c0,7.445,6.036,13.479,13.479,13.479
	s13.48-6.034,13.48-13.479C70.98,10.694,64.943,4.659,57.5,4.659z M57.5,25.432c-4.028,0-7.294-3.265-7.294-7.294
	c0-4.028,3.267-7.293,7.294-7.293c4.027,0,7.295,3.265,7.295,7.293C64.795,22.167,61.527,25.432,57.5,25.432z"/>
<rect x="53" y="28" fill="#F14400" width="9" height="8"/>
</svg>
