<?xml version="1.0" encoding="utf-8"?>
<!-- Generator: Adobe Illustrator 15.1.0, SVG Export Plug-In . SVG Version: 6.00 Build 0)  -->
<!DOCTYPE svg PUBLIC "-//W3C//DTD SVG 1.1//EN" "http://www.w3.org/Graphics/SVG/1.1/DTD/svg11.dtd">
<svg version="1.1" id="Layer_1" xmlns="http://www.w3.org/2000/svg" xmlns:xlink="http://www.w3.org/1999/xlink" x="0px" y="0px"
	 width="114px" height="114px" viewBox="0 0 114 114" enable-background="new 0 0 114 114" xml:space="preserve">
<g>
	<path fill="#E84611" d="M0,94c0,11.046,8.954,20,20,20h74c11.046,0,20-8.954,20-20V20c0-11.046-8.954-20-20-20H20
		C8.954,0,0,8.954,0,20V94z"/>
</g>
<path id="path3066" fill="#F1E7E3" d="M21.58,87.66c-0.122-0.154-2.629-5.57-5.57-12.037c-2.941-6.465-5.586-12.26-5.877-12.877
	l-0.529-1.12L7.835,62.95c-1.856,1.389-2.3,1.579-2.558,1.099c-0.202-0.378-0.136-0.641,0.255-1.011
	c0.446-0.422,6.05-4.678,6.422-4.877c0.141-0.076,0.422-0.122,0.625-0.103c0.289,0.028,0.419,0.131,0.618,0.485
	c0.139,0.247,2.552,5.533,5.362,11.748c2.811,6.215,5.143,11.3,5.183,11.3s5.673-11.627,12.517-25.835
	c8.921-18.519,12.558-25.958,12.842-26.268l0.398-0.433h15.759h44.686v1.27v1.271H65.837H50.656l-0.163,0.259
	c-0.089,0.143-6.155,12.678-13.481,27.856C29.04,76.233,23.569,87.435,23.384,87.626c-0.265,0.27-0.406,0.316-0.947,0.316
	C21.901,87.942,21.767,87.899,21.58,87.66L21.58,87.66z"/>
<path id="path3226" fill="#F1E7E3" d="M76.506,84.3c-0.659-0.193-2.552-0.368-4.203-0.393c-2.951-0.043-3.934-0.589-2.04-1.134
	c1.572-0.453,2.09-1.955,2.126-6.174c0.04-4.604-0.202-4.98-5.157-8.051l-2.79-1.729l-1.534,0.842
	c-1.198,0.658-2.118,0.796-4.207,0.628c-2.475-0.198-2.734-0.131-3.494,0.922c-1.028,1.424-2.087,1.437-4.161,0.047
	c-0.896-0.599-2.12-1.089-2.719-1.089c-1.499,0-2.242-1.446-1.874-3.646c0.167-0.992,0.457-3.217,0.646-4.943
	c0.188-1.727,0.6-3.372,0.914-3.656c0.314-0.285,1.502-0.51,2.643-0.501c3.059,0.023,4.295-0.85,4.161-2.934
	c-0.062-0.928,0.138-1.958,0.441-2.291c0.307-0.335,0.516-1.792,0.47-3.278c-0.096-3.141,0.662-4.193,3.592-4.99
	c1.454-0.395,2.031-0.854,2.583-2.052c0.391-0.848,0.973-1.694,1.292-1.878c0.985-0.569,8.145,0.142,10.431,1.036
	c1.782,0.696,2.499,0.768,4.084,0.401c6.47-1.496,7.574-1.451,10.568,0.426c1.058,0.662,2.627,1.334,3.487,1.493
	c0.86,0.16,1.788,0.667,2.06,1.127s1.288,1.139,2.261,1.507c2.354,0.893,3.481,1.875,3.481,3.034c0,1.135,0.961,1.967,3.724,3.228
	c1.914,0.874,2.78,2.213,1.441,2.229c-0.33,0.003-0.906,0.182-1.279,0.396c-0.555,0.319-0.446,0.643,0.601,1.771
	c1.52,1.639,1.645,3.212,0.322,4.053c-1.267,0.805-3.827,4.262-3.838,5.181c-0.017,1.4-0.602,2.106-1.742,2.106
	c-0.632,0-1.149,0.184-1.149,0.405c0,0.223-0.336,0.709-0.746,1.083c-0.84,0.761-5.145,0.87-6.626,0.166
	c-1.669-0.794-6.26,1.196-8.971,3.887l-2.394,2.377l0.008,3.343c0.004,2.113,0.262,3.745,0.701,4.435
	c1.293,2.027,1.354,2.266,0.683,2.652C79.506,84.794,78.16,84.779,76.506,84.3L76.506,84.3z M81.967,68.189
	c0.424-0.964,0.907-2.52,1.073-3.46c0.25-1.421,0.141-1.786-0.648-2.169c-1.118-0.543-1.83-0.123-3.465,2.042
	c-0.886,1.175-1.031,1.786-0.773,3.248C78.761,71.301,80.525,71.457,81.967,68.189L81.967,68.189z M72.098,65.07
	c-0.201-3.24-0.919-4.312-2.89-4.312c-1.028,0-1.127,1.219-0.345,4.276c0.8,3.13,0.804,3.136,2.157,3.136h1.271L72.098,65.07z
	 M87.261,67.24c1.584-0.654,2.482-2.601,1.763-3.821c-0.707-1.2-2.773-1.663-3.693-0.828c-0.818,0.742-2.159,4.506-1.741,4.885
	C84.05,67.895,85.979,67.771,87.261,67.24L87.261,67.24z M68.332,65.61c-0.003-0.152-0.225-0.568-0.489-0.928
	c-0.418-0.567-0.576-0.543-1.186,0.181c-0.897,1.068-0.048,2.322,1.024,1.515c0.362-0.272,0.654-0.617,0.65-0.77V65.61z
	 M78.799,63.02c0.104-0.285-0.152-0.519-0.57-0.519c-0.419,0-0.761,0.312-0.761,0.691C77.468,63.962,78.501,63.828,78.799,63.02z"/>
<g id="layer2" transform="translate(0,-452.35902)">
</g>
</svg>
